<?xml version="1.0" encoding="UTF-8" standalone="no"?>
<svg
   width="16"
   height="16"
   version="1.1"
   id="svg8"
   sodipodi:docname="display-brightness-low.svg"
   inkscape:version="1.2.2 (b0a8486541, 2022-12-01)"
   xmlns:inkscape="http://www.inkscape.org/namespaces/inkscape"
   xmlns:sodipodi="http://sodipodi.sourceforge.net/DTD/sodipodi-0.dtd"
   xmlns="http://www.w3.org/2000/svg"
   xmlns:svg="http://www.w3.org/2000/svg">
  <defs
     id="defs12" />
  <sodipodi:namedview
     id="namedview10"
     pagecolor="#505050"
     bordercolor="#ffffff"
     borderopacity="1"
     inkscape:showpageshadow="0"
     inkscape:pageopacity="0"
     inkscape:pagecheckerboard="1"
     inkscape:deskcolor="#505050"
     showgrid="false"
     inkscape:zoom="14.75"
     inkscape:cx="7.9661017"
     inkscape:cy="8"
     inkscape:window-width="932"
     inkscape:window-height="1114"
     inkscape:window-x="970"
     inkscape:window-y="68"
     inkscape:window-maximized="1"
     inkscape:current-layer="svg8" />
  <g
     transform="translate(-613 191)"
     id="g4"
     style="fill:#eba0ac;fill-opacity:1.0">
    <path
       d="M620.25-190a.25.25 0 0 0-.25.25v1.5c0 .139.112.25.25.25h.5a.25.25 0 0 0 .25-.25v-1.5a.25.25 0 0 0-.25-.25zm-4.699 1.947a.25.25 0 0 0-.178.073l-.353.353a.25.25 0 0 0 0 .354l1.06 1.06a.25.25 0 0 0 .354 0l.353-.353a.25.25 0 0 0 0-.354l-1.06-1.06a.246.246 0 0 0-.176-.073zm9.898 0a.246.246 0 0 0-.175.073l-1.06 1.06a.25.25 0 0 0 0 .354l.353.353a.25.25 0 0 0 .353 0l1.06-1.06a.25.25 0 0 0 0-.354l-.353-.353a.25.25 0 0 0-.178-.073zM620.5-186a3.5 3.5 0 0 0-3.5 3.5 3.5 3.5 0 0 0 3.5 3.5 3.5 3.5 0 0 0 3.5-3.5 3.5 3.5 0 0 0-3.5-3.5zm0 1a2.5 2.5 0 0 1 2.5 2.5 2.5 2.5 0 0 1-2.5 2.5 2.5 2.5 0 0 1-2.5-2.5 2.5 2.5 0 0 1 2.5-2.5zm-7.25 2a.25.25 0 0 0-.25.25v.5c0 .139.112.25.25.25h1.5a.25.25 0 0 0 .25-.25v-.5a.25.25 0 0 0-.25-.25zm13 0a.25.25 0 0 0-.25.25v.5c0 .139.112.25.25.25h1.5a.25.25 0 0 0 .25-.25v-.5a.25.25 0 0 0-.25-.25zm-9.992 4.139a.252.252 0 0 0-.178.074l-1.06 1.06a.25.25 0 0 0 0 .354l.353.353a.25.25 0 0 0 .354 0l1.06-1.06a.25.25 0 0 0 0-.354l-.353-.353a.248.248 0 0 0-.176-.074zm8.484 0a.248.248 0 0 0-.175.074l-.354.353a.25.25 0 0 0 0 .354l1.06 1.06a.25.25 0 0 0 .354 0l.354-.353a.25.25 0 0 0 0-.354l-1.06-1.06a.252.252 0 0 0-.179-.074zM620.25-177a.25.25 0 0 0-.25.25v1.5c0 .139.112.25.25.25h.5a.25.25 0 0 0 .25-.25v-1.5a.25.25 0 0 0-.25-.25z"
       fill="#363636"
       overflow="visible"
       style="isolation:auto;mix-blend-mode:normal;fill:#eba0ac;fill-opacity:1.0"
       id="path2" />
  </g>
  <path
     d="m6 5.3418a3.5 3.5 0 0 0-2 3.1582 3.5 3.5 0 0 0 2 3.1582v-6.3164z"
     fill="#363636"
     fill-rule="evenodd"
     style="paint-order:stroke fill markers;fill:#eba0ac;fill-opacity:1.0"
     id="path6" />
</svg>
