<?xml version="1.0" encoding="UTF-8" standalone="no"?>
<svg
   width="24"
   height="24"
   enable-background="new"
   version="1.1"
   id="svg9708"
   sodipodi:docname="battery-good-charging.svg"
   inkscape:version="1.2.2 (b0a8486541, 2022-12-01)"
   xmlns:inkscape="http://www.inkscape.org/namespaces/inkscape"
   xmlns:sodipodi="http://sodipodi.sourceforge.net/DTD/sodipodi-0.dtd"
   xmlns="http://www.w3.org/2000/svg"
   xmlns:svg="http://www.w3.org/2000/svg">
  <defs
     id="defs9712" />
  <sodipodi:namedview
     id="namedview9710"
     pagecolor="#505050"
     bordercolor="#ffffff"
     borderopacity="1"
     inkscape:showpageshadow="0"
     inkscape:pageopacity="0"
     inkscape:pagecheckerboard="1"
     inkscape:deskcolor="#505050"
     showgrid="false"
     inkscape:zoom="16"
     inkscape:cx="14.78125"
     inkscape:cy="0.3125"
     inkscape:window-width="932"
     inkscape:window-height="1114"
     inkscape:window-x="970"
     inkscape:window-y="68"
     inkscape:window-maximized="1"
     inkscape:current-layer="svg9708" />
  <title
     id="title9694">Paper Symbolic Icon Theme</title>
  <g
     transform="translate(2,4)"
     fill="#ffffff"
     id="g9706"
     style="fill:#f5c2e7;fill-opacity:0.94901961">
    <path
       d="m8.834 4-3.334 5h3l-0.75 3h0.41602l3.334-5h-3l0.75-3z"
       enable-background="new"
       id="path9696"
       style="fill:#f5c2e7;fill-opacity:0.94901961" />
    <g
       fill-rule="evenodd"
       id="g9704"
       style="fill:#f5c2e7;fill-opacity:0.94901961">
      <path
         d="m2 3c-1.108 0-2 0.892-2 2v6c0 1.108 0.892 2 2 2h13c1.108 0 2-0.892 2-2v-6c0-1.108-0.892-2-2-2zm0 1h13c0.554 0 1 0.446 1 1v6c0 0.554-0.446 1-1 1h-13c-0.554 0-1-0.446-1-1v-6c0-0.554 0.446-1 1-1z"
         enable-background="new"
         style="paint-order:stroke fill markers;fill:#f5c2e7;fill-opacity:0.94901961"
         id="path9698" />
      <path
         d="m2.5508 5c-0.30514 0-0.55078 0.24564-0.55078 0.55078v4.8984c0 0.30514 0.24564 0.55078 0.55078 0.55078h4.418l0.25-1h-1.7188c-0.79859-1.712e-4 -1.2749-0.89013-0.83203-1.5547l2.2969-3.4453h-4.4141zm7.4805 0-0.25 1h1.7188c0.1877 4.03e-5 0.35566 0.052848 0.5 0.13672v-0.58594c0-0.30514-0.24564-0.55078-0.55078-0.55078h-1.418zm1.9688 3.0527-1.9648 2.9473h1.4141c0.30514 0 0.55078-0.24564 0.55078-0.55078v-2.3965z"
         enable-background="new"
         style="paint-order:stroke fill markers;fill:#f5c2e7;fill-opacity:0.94901961"
         id="path9700" />
      <path
         d="m18 6v4a2 2 0 0 0 2-2 2 2 0 0 0-2-2z"
         enable-background="new"
         style="paint-order:stroke fill markers;fill:#f5c2e7;fill-opacity:0.94901961"
         id="path9702" />
    </g>
  </g>
  <path
     style="fill:#f5c2e7;stroke-width:0.0254237;fill-opacity:0.94901961"
     d="m 4.3062618,14.916249 c -0.099004,-0.05172 -0.156834,-0.104762 -0.2126489,-0.195041 l -0.076664,-0.124 V 12 9.4027922 L 4.0936129,9.2787916 C 4.1494278,9.188513 4.2072579,9.1354717 4.3062618,9.0837514 L 4.442247,9.0127119 H 6.6892574 8.9362676 L 7.7706819,10.761624 c -0.7504887,1.126076 -1.185913,1.802869 -1.222664,1.900423 -0.080264,0.213058 -0.067023,0.544203 0.030204,0.755393 0.08644,0.187758 0.2868209,0.399188 0.4573976,0.482617 0.2177537,0.106504 0.3741506,0.121129 1.2953214,0.121129 0.4728557,0 0.8597375,0.0059 0.8597375,0.01318 0,0.0073 -0.052905,0.224623 -0.117568,0.483051 L 8.955542,14.987288 H 6.6988945 4.442247 Z"
     id="path11346" />
  <path
     style="fill:#f5c2e7;stroke-width:0.0254237;fill-opacity:0.94901961"
     d="m 9.7754237,15.965768 c 0,-0.0072 0.1658899,-0.676304 0.3686443,-1.486954 0.202754,-0.810651 0.368644,-1.479689 0.368644,-1.486752 0,-0.0071 -0.6692641,-0.01579 -1.4872534,-0.0194 l -1.4872534,-0.0066 1.6461517,-2.471733 1.6461511,-2.4717326 0.197034,-7.25e-4 c 0.108369,-3.987e-4 0.197034,0.00515 0.197034,0.01232 0,0.00717 -0.16589,0.6763045 -0.368644,1.4869548 -0.202754,0.8106508 -0.368644,1.4796888 -0.368644,1.4867518 0,0.0071 0.669264,0.01579 1.487253,0.0194 l 1.487254,0.0066 -1.646152,2.471733 -1.646151,2.471733 -0.1970344,7.24e-4 c -0.1083686,3.99e-4 -0.1970339,-0.0051 -0.1970339,-0.01232 z"
     id="path11348" />
  <path
     style="fill:#f5c2e7;stroke-width:0.0254237;fill-opacity:0.94901961"
     d="M 13.830508,10.046717 C 13.709945,9.995488 13.654553,9.992259 12.756356,9.98409 12.235487,9.97935 11.809322,9.970295 11.809322,9.963962 c 0,-0.00633 0.05291,-0.2229553 0.117568,-0.4813824 L 12.044458,9.012712 h 0.756647 0.756648 l 0.135985,0.07104 c 0.09877,0.051596 0.15685,0.1047864 0.212216,0.1943395 0.07337,0.1186733 0.07659,0.1365184 0.08591,0.4755706 0.0053,0.1937489 -2.04e-4,0.3511009 -0.01228,0.3496699 -0.01207,-0.0014 -0.07916,-0.02691 -0.149072,-0.05661 z"
     id="path11350" />
  <path
     style="fill:#f5c2e7;stroke-width:0.0254237;fill-opacity:0.94901961"
     d="m 13.007183,13.569915 c 0.519119,-0.779555 0.954433,-1.428758 0.967364,-1.442673 0.01442,-0.01551 0.02061,0.457369 0.01601,1.222373 l -0.0075,1.247674 -0.07666,0.12396 c -0.0558,0.09022 -0.113677,0.143296 -0.212649,0.195 l -0.135985,0.07104 H 12.810542 12.06333 Z"
     id="path11352" />
  <path
     style="fill:#f5c2e7;stroke-width:0.0254237;fill-opacity:0.94901961"
     d="M 3.7255762,16.966219 C 2.9125537,16.849197 2.2632647,16.257355 2.0705537,15.457627 2.0234694,15.262233 2.0215427,15.126305 2.0215427,12 c 0,-3.1263048 0.00193,-3.2622331 0.049011,-3.4576271 C 2.2409421,7.8352808 2.7398691,7.3122672 3.4576271,7.088336 L 3.6864407,7.0169492 H 10.5 17.313559 l 0.228814,0.071387 c 0.7282,0.2271891 1.227828,0.7607082 1.397383,1.4921725 0.05756,0.2483241 0.05766,6.5900373 1.02e-4,6.8389833 -0.171874,0.743416 -0.704308,1.297188 -1.448331,1.506375 l -0.203391,0.05718 -6.699153,0.0034 c -4.0145664,0.002 -6.764975,-0.0061 -6.8634068,-0.02024 z m 13.7062348,-1.05481 c 0.272536,-0.129123 0.46804,-0.362599 0.544671,-0.65046 0.05158,-0.19378 0.05316,-6.3224423 0.0017,-6.5151863 -0.0809,-0.3027474 -0.264148,-0.5234786 -0.545113,-0.6565831 L 17.262712,8.0084746 H 10.5 3.7372881 L 3.5663195,8.0894657 C 3.3823577,8.1766121 3.1932063,8.3496756 3.1157933,8.5016736 2.9821296,8.7641182 2.9872881,8.6236861 2.9872881,12 c 0,3.376314 -0.00516,3.235882 0.1285052,3.498326 0.065153,0.127926 0.2516866,0.313267 0.3834482,0.380997 0.2498251,0.128418 -0.1349229,0.122025 7.0388945,0.116955 l 6.724576,-0.0048 z"
     id="path11354" />
  <path
     style="fill:#f5c2e7;stroke-width:0.0254237;fill-opacity:0.94901961"
     d="m 20.021186,12 v -1.997514 l 0.133475,0.01613 c 0.474325,0.05734 0.836097,0.21236 1.159557,0.496886 0.284901,0.25061 0.541216,0.684952 0.623942,1.057309 0.233058,1.049018 -0.450844,2.127013 -1.496207,2.358386 -0.0846,0.01872 -0.213881,0.0413 -0.287292,0.05018 l -0.133475,0.01613 z"
     id="path11356" />
</svg>
