<?xml version="1.0" encoding="UTF-8" standalone="no"?>
<svg
   width="24"
   height="24"
   enable-background="new"
   version="1.1"
   id="svg264"
   sodipodi:docname="battery-full-charging.svg"
   inkscape:version="1.2.2 (b0a8486541, 2022-12-01)"
   xmlns:inkscape="http://www.inkscape.org/namespaces/inkscape"
   xmlns:sodipodi="http://sodipodi.sourceforge.net/DTD/sodipodi-0.dtd"
   xmlns="http://www.w3.org/2000/svg"
   xmlns:svg="http://www.w3.org/2000/svg">
  <defs
     id="defs268" />
  <sodipodi:namedview
     id="namedview266"
     pagecolor="#505050"
     bordercolor="#ffffff"
     borderopacity="1"
     inkscape:showpageshadow="0"
     inkscape:pageopacity="0"
     inkscape:pagecheckerboard="1"
     inkscape:deskcolor="#505050"
     showgrid="false"
     inkscape:zoom="90.509668"
     inkscape:cx="15.595019"
     inkscape:cy="15.69998"
     inkscape:window-width="932"
     inkscape:window-height="1114"
     inkscape:window-x="970"
     inkscape:window-y="68"
     inkscape:window-maximized="1"
     inkscape:current-layer="svg264" />
  <title
     id="title250">Paper Symbolic Icon Theme</title>
  <g
     transform="translate(2,4)"
     fill="#ffffff"
     id="g262"
     style="fill:#f5c2e7;fill-opacity:1.0">
    <g
       fill-rule="evenodd"
       id="g258"
       style="fill:#f5c2e7;fill-opacity:1.0">
      <path
         d="m2.5215 5c-0.28865 0-0.52148 0.24253-0.52148 0.54492v4.9102c0 0.30239 0.23284 0.54492 0.52148 0.54492h4.4473l0.25-1h-1.7188c-0.79859-1.712e-4 -1.2749-0.89013-0.83203-1.5547l2.2969-3.4453h-4.4434zm7.5098 0-0.25 1h1.7188c0.79859 1.713e-4 1.2749 0.89013 0.83203 1.5547l-2.2969 3.4453h4.4434c0.28865 0 0.52148-0.24253 0.52148-0.54492v-4.9102c0-0.30239-0.23284-0.54492-0.52148-0.54492h-4.4473z"
         style="paint-order:stroke fill markers;fill:#f5c2e7;fill-opacity:1.0"
         id="path252" />
      <path
         d="m2 3c-1.108 0-2 0.892-2 2v6c0 1.108 0.892 2 2 2h13c1.108 0 2-0.892 2-2v-6c0-1.108-0.892-2-2-2zm0 1h13c0.554 0 1 0.446 1 1v6c0 0.554-0.446 1-1 1h-13c-0.554 0-1-0.446-1-1v-6c0-0.554 0.446-1 1-1z"
         enable-background="new"
         style="paint-order:stroke fill markers;fill:#f5c2e7;fill-opacity:1.0"
         id="path254" />
      <path
         d="m18 6v4a2 2 0 0 0 2-2 2 2 0 0 0-2-2z"
         enable-background="new"
         style="paint-order:stroke fill markers;fill:#f5c2e7;fill-opacity:1.0"
         id="path256" />
    </g>
    <path
       d="m8.834 4-3.334 5h3l-0.75 3h0.41602l3.334-5h-3l0.75-3z"
       enable-background="new"
       id="path260"
       style="fill:#f5c2e7;fill-opacity:1.0" />
  </g>
  <path
     style="fill:#f5c2e7;stroke-width:0.101695;fill-opacity:1.0"
     d=""
     id="path1120" />
  <path
     style="fill:#f5c2e7;fill-opacity:1.0;stroke-width:0.0359546"
     d="m 12.098717,14.956826 c 0,-0.01004 0.519666,-0.797503 1.154814,-1.749916 0.635147,-0.952412 1.179223,-1.803297 1.209058,-1.890856 0.03671,-0.107731 0.04856,-0.238554 0.03668,-0.404668 C 14.478437,10.620227 14.37036,10.409665 14.140963,10.21331 13.892476,10.000614 13.752702,9.9773965 12.720711,9.9773965 H 11.80971 l 0.02495,-0.098875 c 0.01372,-0.054381 0.06763,-0.2687605 0.119803,-0.4763982 l 0.09485,-0.3775231 h 2.287217 c 2.253997,0 2.28866,0.00108 2.386494,0.074131 0.0546,0.040772 0.132634,0.1188034 0.173406,0.1734033 0.07303,0.097803 0.07427,0.137316 0.08382,2.6696235 0.0094,2.482257 0.0073,2.575787 -0.06048,2.72897 -0.04234,0.09572 -0.117473,0.187462 -0.189463,0.231353 -0.116396,0.07096 -0.17418,0.07274 -2.375448,0.07287 -1.240883,7.4e-5 -2.25615,-0.0081 -2.25615,-0.01812 z"
     id="path1191" />
  <path
     style="fill:#f5c2e7;fill-opacity:1.0;stroke-width:0.0359546"
     d="M 3.5774809,16.932352 C 2.8769677,16.781068 2.2681393,16.19234 2.0849735,15.489119 2.0056969,15.184756 2.0055728,8.8013996 2.0848376,8.5035306 2.2684398,7.8135726 2.8284507,7.2603579 3.5221144,7.0836966 3.7099719,7.0358533 4.569112,7.0291208 10.486545,7.0291208 c 4.734963,0 6.807019,0.01171 6.940669,0.039226 0.508652,0.1047188 1.068333,0.5254046 1.311085,0.9854799 0.235221,0.445804 0.227743,0.3156842 0.227743,3.9626563 0,3.638959 0.01123,3.443567 -0.224776,3.911397 -0.149186,0.295728 -0.552346,0.691945 -0.853861,0.839156 -0.476089,0.232444 -0.0696,0.220479 -7.406644,0.218021 -5.5841046,-0.0019 -6.7076106,-0.01045 -6.9032801,-0.0527 z M 17.48556,15.89376 c 0.205184,-0.11366 0.364907,-0.289086 0.465275,-0.511016 0.05776,-0.127718 0.06241,-0.37913 0.06241,-3.373914 V 8.772918 L 17.928275,8.5849816 C 17.881541,8.4816166 17.775425,8.3344762 17.692462,8.2580029 17.394719,7.9835534 17.583405,7.9971417 14.22228,8.0080953 l -2.999966,0.00978 -0.369728,1.4741379 c -0.20335,0.8107768 -0.3702,1.4862728 -0.370777,1.5011038 -5.75e-4,0.01483 0.670462,0.02697 1.491197,0.02697 h 1.492246 L 11.81108,13.500954 10.156908,15.98182 H 9.9636159 9.7703237 l 0.3721883,-1.483127 c 0.204704,-0.815719 0.372642,-1.487171 0.373196,-1.492115 5.54e-4,-0.0049 -0.6705032,-0.009 -1.4912384,-0.009 H 7.5322239 l 1.6540413,-2.48067 C 10.095988,9.1525424 10.840307,8.0280629 10.840307,8.0180677 c 0,-0.01 -1.5977322,-0.018015 -3.5505155,-0.017822 L 3.7392765,8.000598 3.5595036,8.084491 c -0.2214824,0.1033564 -0.4173723,0.3150041 -0.50727,0.5480746 -0.064871,0.1681866 -0.068003,0.3236859 -0.068003,3.3762644 0,3.479974 -0.011165,3.282616 0.2037233,3.601203 0.1059548,0.157085 0.2752842,0.280106 0.4931586,0.35829 0.1051734,0.03774 1.4206035,0.04522 6.8715575,0.03907 l 6.741484,-0.0076 z"
     id="path1193" />
  <path
     style="fill:#f5c2e7;fill-opacity:1.0;stroke-width:0.0359546"
     d="M 3.6182876,16.915569 C 2.9592001,16.819743 2.2272328,16.112967 2.1048474,15.454215 2.0541195,15.181166 2.0211988,11.205733 2.0575074,9.7375358 L 2.0887802,8.4729695 2.2439861,8.1597508 C 2.5058034,7.6313816 2.9632232,7.2510866 3.4916538,7.1224504 3.7638267,7.0561952 9.6799418,7.0210782 14.348674,7.0580051 l 3.166799,0.025048 0.311819,0.1545545 c 0.569921,0.2824842 0.979175,0.7880023 1.069507,1.3210745 0.06327,0.3733568 0.06448,6.5625579 0.0014,6.8838109 -0.06664,0.339134 -0.232437,0.624648 -0.542981,0.935075 -0.363082,0.362947 -0.619575,0.490944 -1.078995,0.538451 -0.40849,0.04224 -13.3671994,0.04181 -13.6578889,-4.49e-4 z M 17.420428,15.945636 c 0.202587,-0.103352 0.382956,-0.272 0.495317,-0.463131 l 0.0975,-0.165853 0.01105,-3.277991 0.01105,-3.2779909 -0.08883,-0.17529 C 17.848561,8.3920854 17.597795,8.1224995 17.456678,8.0587845 17.391798,8.0294911 16.491809,8.0149944 14.28773,8.0077404 L 11.209397,7.9976089 10.845079,9.454592 c -0.200375,0.801341 -0.364318,1.481217 -0.364318,1.510836 0,0.04681 0.192889,0.05508 1.47407,0.06324 l 1.474071,0.0094 -1.644855,2.470865 -1.644855,2.470866 -0.1707841,10e-4 c -0.093931,5.57e-4 -0.1707843,-0.0074 -0.1707843,-0.01764 0,-0.01026 0.1617956,-0.665228 0.3595454,-1.455484 0.197751,-0.790255 0.359546,-1.453133 0.359546,-1.473061 0,-0.0236 -0.513464,-0.03951 -1.4724801,-0.04562 l -1.4724804,-0.0094 1.634276,-2.459867 C 10.104882,9.1668093 10.840307,8.0463747 10.840307,8.0298817 c 0,-0.016493 -1.6105116,-0.029987 -3.5789138,-0.029987 -3.4486916,0 -3.5837992,0.00249 -3.7131956,0.068506 -0.1819982,0.092848 -0.452744,0.3892881 -0.51393,0.5627018 -0.073459,0.2081966 -0.074243,6.4584375 -8.428e-4,6.7110105 0.091236,0.313946 0.4122442,0.599313 0.7235245,0.643194 0.089155,0.01257 3.1680985,0.02501 6.8420967,0.02766 6.620674,0.0048 6.681251,0.0042 6.821382,-0.06733 z"
     id="path1195" />
  <path
     style="fill:#f5c2e7;fill-opacity:1.0;stroke-width:0.0359546"
     d="m 4.2671607,14.902081 c -0.07199,-0.04389 -0.1471228,-0.135636 -0.1894633,-0.231353 -0.06776,-0.153183 -0.069833,-0.246713 -0.060474,-2.72897 0.00955,-2.5323078 0.010788,-2.5718205 0.083821,-2.6696238 0.040772,-0.0546 0.1188016,-0.1326314 0.1733993,-0.1734033 0.097482,-0.072797 0.140307,-0.074307 2.3801226,-0.083901 l 2.280854,-0.00977 -1.1843421,1.7775551 c -0.6513883,0.977656 -1.201562,1.839569 -1.2226084,1.915363 -0.1343567,0.483855 0.088239,1.003451 0.5221019,1.218719 0.1268904,0.06296 0.2363592,0.07065 1.1418544,0.08024 0.9230174,0.0098 1.0002539,0.01541 0.9854928,0.07191 -0.00881,0.03371 -0.062377,0.25141 -0.1190406,0.483766 L 8.9558539,14.975083 6.6711564,14.97494 C 4.4412331,14.974796 4.3835989,14.97304 4.2671607,14.90207 Z"
     id="path1197" />
  <path
     style="fill:#f5c2e7;fill-opacity:1.0;stroke-width:0.0359546"
     d="m 20.008725,11.990853 c 0,-1.88688 0.003,-1.977502 0.06531,-1.977502 0.40262,0 0.991444,0.264417 1.319611,0.592585 0.356311,0.356311 0.594018,0.918698 0.591961,1.400509 -0.001,0.240908 -0.09949,0.634645 -0.22088,0.883273 -0.282171,0.577939 -1.034044,1.078637 -1.619734,1.078637 h -0.136264 z"
     id="path1199" />
</svg>
