<?xml version="1.0" encoding="UTF-8" standalone="no"?>
<svg
   width="24"
   height="24"
   enable-background="new"
   version="1.1"
   id="svg4181"
   sodipodi:docname="battery-empty-charging.svg"
   inkscape:version="1.2.2 (b0a8486541, 2022-12-01)"
   xmlns:inkscape="http://www.inkscape.org/namespaces/inkscape"
   xmlns:sodipodi="http://sodipodi.sourceforge.net/DTD/sodipodi-0.dtd"
   xmlns="http://www.w3.org/2000/svg"
   xmlns:svg="http://www.w3.org/2000/svg">
  <defs
     id="defs4185" />
  <sodipodi:namedview
     id="namedview4183"
     pagecolor="#505050"
     bordercolor="#ffffff"
     borderopacity="1"
     inkscape:showpageshadow="0"
     inkscape:pageopacity="0"
     inkscape:pagecheckerboard="1"
     inkscape:deskcolor="#505050"
     showgrid="false"
     inkscape:zoom="16"
     inkscape:cx="12.71875"
     inkscape:cy="-3.3125"
     inkscape:window-width="932"
     inkscape:window-height="1114"
     inkscape:window-x="970"
     inkscape:window-y="68"
     inkscape:window-maximized="1"
     inkscape:current-layer="svg4181" />
  <title
     id="title4171">Paper Symbolic Icon Theme</title>
  <g
     transform="translate(2,4)"
     fill="#ffffff"
     id="g4179"
     style="fill:#f5c2e7;fill-opacity:1.0">
    <path
       d="m2 3c-1.108 0-2 0.892-2 2v6c0 1.108 0.892 2 2 2h13c1.108 0 2-0.892 2-2v-6c0-1.108-0.892-2-2-2zm0 1h13c0.554 0 1 0.446 1 1v6c0 0.554-0.446 1-1 1h-13c-0.554 0-1-0.446-1-1v-6c0-0.554 0.446-1 1-1z"
       enable-background="new"
       fill-rule="evenodd"
       style="paint-order:stroke fill markers;fill:#f5c2e7;fill-opacity:1.0"
       id="path4173" />
    <path
       d="m18 6v4a2 2 0 0 0 2-2 2 2 0 0 0-2-2z"
       enable-background="new"
       fill-rule="evenodd"
       style="paint-order:stroke fill markers;fill:#f5c2e7;fill-opacity:1.0"
       id="path4175" />
    <path
       d="m8.834 4-3.334 5h3l-0.75 3h0.41602l3.334-5h-3l0.75-3z"
       enable-background="new"
       id="path4177"
       style="fill:#f5c2e7;fill-opacity:1.0" />
  </g>
</svg>
