<?xml version="1.0" encoding="UTF-8" standalone="no"?>
<svg
   width="24"
   height="24"
   enable-background="new"
   version="1.1"
   id="svg240"
   sodipodi:docname="battery-full.svg"
   inkscape:version="1.2.2 (b0a8486541, 2022-12-01)"
   xmlns:inkscape="http://www.inkscape.org/namespaces/inkscape"
   xmlns:sodipodi="http://sodipodi.sourceforge.net/DTD/sodipodi-0.dtd"
   xmlns="http://www.w3.org/2000/svg"
   xmlns:svg="http://www.w3.org/2000/svg">
  <defs
     id="defs244" />
  <sodipodi:namedview
     id="namedview242"
     pagecolor="#505050"
     bordercolor="#ffffff"
     borderopacity="1"
     inkscape:showpageshadow="0"
     inkscape:pageopacity="0"
     inkscape:pagecheckerboard="1"
     inkscape:deskcolor="#505050"
     showgrid="false"
     inkscape:zoom="16"
     inkscape:cx="12.09375"
     inkscape:cy="-6.0625"
     inkscape:window-width="932"
     inkscape:window-height="1114"
     inkscape:window-x="970"
     inkscape:window-y="68"
     inkscape:window-maximized="1"
     inkscape:current-layer="svg240" />
  <title
     id="title230">Paper Symbolic Icon Theme</title>
  <g
     transform="translate(2,4)"
     fill="#ffffff"
     fill-rule="evenodd"
     id="g238"
     style="fill:#f5c2e7;fill-opacity:1.0">
    <rect
       x="2"
       y="5"
       width="13"
       height="6"
       rx=".52103"
       ry=".54584"
       style="paint-order:stroke fill markers;fill:#f5c2e7;fill-opacity:1.0"
       id="rect232" />
    <path
       d="m2 3c-1.108 0-2 0.892-2 2v6c0 1.108 0.892 2 2 2h13c1.108 0 2-0.892 2-2v-6c0-1.108-0.892-2-2-2zm0 1h13c0.554 0 1 0.446 1 1v6c0 0.554-0.446 1-1 1h-13c-0.554 0-1-0.446-1-1v-6c0-0.554 0.446-1 1-1z"
       enable-background="new"
       style="paint-order:stroke fill markers;fill:#f5c2e7;fill-opacity:1.0"
       id="path234" />
    <path
       d="m18 6v4a2 2 0 0 0 2-2 2 2 0 0 0-2-2z"
       enable-background="new"
       style="paint-order:stroke fill markers;fill:#f5c2e7;fill-opacity:1.0"
       id="path236" />
  </g>
  <path
     style="fill:#f5c2e7;stroke-width:0.0254237;fill-opacity:1.0"
     d="m 20.021187,12.001266 v -1.996249 l 0.158898,0.01583 c 0.190976,0.01902 0.541633,0.11622 0.68828,0.190784 0.284116,0.144462 0.592787,0.40924 0.759417,0.651428 0.118499,0.172232 0.265157,0.507783 0.310213,0.70976 0.05218,0.23394 0.05226,0.619886 1.65e-4,0.85437 -0.07948,0.35774 -0.327342,0.789838 -0.591066,1.030396 -0.147428,0.134478 -0.450858,0.327156 -0.607499,0.385764 -0.163283,0.06109 -0.388945,0.114344 -0.584934,0.138035 l -0.133474,0.01613 z"
     id="path862" />
  <path
     style="fill:#f5c2e7;stroke-width:0.0254237;fill-opacity:1.0"
     d="M 3.7480828,16.971039 C 2.9307644,16.864515 2.2647927,16.263697 2.0705537,15.457627 2.0234694,15.262233 2.0215427,15.126305 2.0215427,12 c 0,-3.1263047 0.00193,-3.262233 0.049011,-3.457627 C 2.2409421,7.8352809 2.7398692,7.3122672 3.4576271,7.0883361 L 3.6864407,7.0169492 H 10.5 17.313559 l 0.228814,0.071387 c 0.708584,0.221069 1.219623,0.7545049 1.385435,1.4461541 0.04922,0.2053068 0.05065,0.3031643 0.05065,3.4655097 0,3.126305 -0.0019,3.262233 -0.04901,3.457627 -0.170388,0.707092 -0.669315,1.230106 -1.387073,1.454037 l -0.228814,0.07139 -6.711864,0.0032 c -3.6915254,0.0018 -6.7756509,-0.0051 -6.8536122,-0.01524 z M 17.410111,15.922462 c 0.280491,-0.131424 0.463975,-0.339168 0.552391,-0.625427 0.04885,-0.158147 0.05021,-0.247656 0.05021,-3.297035 0,-3.0493789 -0.0014,-3.1388876 -0.05021,-3.2970345 -0.08842,-0.2862593 -0.2719,-0.4940029 -0.552391,-0.6254269 L 17.262712,8.0084746 H 10.5 3.7372882 L 3.6101695,8.0668656 C 3.3132084,8.2032725 3.1285111,8.4082988 3.037684,8.7023628 2.9885933,8.8613 2.9872882,8.9467135 2.9872882,12.000413 c 0,3.034333 0.00159,3.139986 0.049468,3.293827 0.104977,0.337292 0.3343041,0.566423 0.6751086,0.674531 0.081257,0.02578 1.4531728,0.0313 6.8262712,0.02751 l 6.724576,-0.0048 z"
     id="path864" />
  <path
     style="fill:#f5c2e7;stroke-width:0.0254237;fill-opacity:1.0"
     d="M 4.3349273,14.946789 C 4.2188219,14.896439 4.1390638,14.820127 4.0716784,14.694915 L 4.0169492,14.59322 V 12 9.4067797 L 4.0716784,9.3050848 C 4.1403733,9.1774395 4.2201239,9.1024125 4.3406321,9.052061 4.4247413,9.0169179 5.0831056,9.0127119 10.5,9.0127119 c 5.416894,0 6.075259,0.00421 6.159368,0.039349 0.120508,0.050351 0.200259,0.1253785 0.268954,0.2530238 l 0.05473,0.1016949 V 12 14.59322 l -0.05473,0.101695 c -0.0687,0.127646 -0.148446,0.202673 -0.268954,0.253024 -0.08413,0.03515 -0.741536,0.03924 -6.164907,0.03835 -5.3648866,-8.79e-4 -6.0810571,-0.0055 -6.1595337,-0.0395 z"
     id="path866" />
</svg>
