<?xml version="1.0" encoding="UTF-8" standalone="no"?>
<svg
   width="24"
   height="24"
   enable-background="new"
   version="1.1"
   id="svg5636"
   sodipodi:docname="battery-low-charging.svg"
   inkscape:version="1.2.2 (b0a8486541, 2022-12-01)"
   xmlns:inkscape="http://www.inkscape.org/namespaces/inkscape"
   xmlns:sodipodi="http://sodipodi.sourceforge.net/DTD/sodipodi-0.dtd"
   xmlns="http://www.w3.org/2000/svg"
   xmlns:svg="http://www.w3.org/2000/svg">
  <defs
     id="defs5640" />
  <sodipodi:namedview
     id="namedview5638"
     pagecolor="#505050"
     bordercolor="#ffffff"
     borderopacity="1"
     inkscape:showpageshadow="0"
     inkscape:pageopacity="0"
     inkscape:pagecheckerboard="1"
     inkscape:deskcolor="#505050"
     showgrid="false"
     inkscape:zoom="45.254834"
     inkscape:cx="15.876757"
     inkscape:cy="9.5017474"
     inkscape:window-width="932"
     inkscape:window-height="1114"
     inkscape:window-x="970"
     inkscape:window-y="68"
     inkscape:window-maximized="1"
     inkscape:current-layer="svg5636" />
  <title
     id="title5622">Paper Symbolic Icon Theme</title>
  <g
     transform="translate(2,4)"
     fill="#ffffff"
     id="g5634"
     style="fill:#f5c2e7;fill-opacity:1.0">
    <g
       fill-rule="evenodd"
       id="g5630"
       style="fill:#f5c2e7;fill-opacity:1.0">
      <path
         d="m2.5312 5c-0.29412 0-0.53125 0.24253-0.53125 0.54492v4.9102c0 0.30239 0.23713 0.54492 0.53125 0.54492h3.9375c0.29412 0 0.53125-0.24253 0.53125-0.54492v-0.45508h-1.5c-0.79859-1.712e-4 -1.2749-0.89013-0.83203-1.5547l2.1836-3.2754c-0.096507-0.10352-0.23169-0.16992-0.38281-0.16992h-3.9375z"
         style="paint-order:stroke fill markers;fill:#f5c2e7;fill-opacity:1.0"
         id="path5624" />
      <path
         d="m2 3c-1.108 0-2 0.892-2 2v6c0 1.108 0.892 2 2 2h13c1.108 0 2-0.892 2-2v-6c0-1.108-0.892-2-2-2zm0 1h13c0.554 0 1 0.446 1 1v6c0 0.554-0.446 1-1 1h-13c-0.554 0-1-0.446-1-1v-6c0-0.554 0.446-1 1-1z"
         enable-background="new"
         style="paint-order:stroke fill markers;fill:#f5c2e7;fill-opacity:1.0"
         id="path5626" />
      <path
         d="m18 6v4a2 2 0 0 0 2-2 2 2 0 0 0-2-2z"
         enable-background="new"
         style="paint-order:stroke fill markers;fill:#f5c2e7;fill-opacity:1.0"
         id="path5628" />
    </g>
    <path
       d="m8.834 4-3.334 5h3l-0.75 3h0.41602l3.334-5h-3l0.75-3z"
       enable-background="new"
       id="path5632"
       style="fill:#f5c2e7;fill-opacity:1.0" />
  </g>
  <path
     style="fill:#f5c2e7;stroke-width:0.0254237;fill-opacity:1.0"
     d="M 4.3609292,14.959002 C 4.2490276,14.914342 4.1322004,14.808834 4.0739179,14.699798 L 4.0169492,14.59322 V 12 9.4067797 L 4.0805085,9.2935018 C 4.1154661,9.231199 4.1936714,9.1453939 4.2542981,9.1028239 l 0.1102303,-0.0774 2.0762104,-0.0076 c 1.3950103,-0.00511 2.1063614,0.00115 2.168107,0.019057 0.050543,0.014662 0.1216576,0.050068 0.1580323,0.07868 l 0.066136,0.052022 -1.113974,1.6715181 c -0.7146455,1.072325 -1.1344297,1.725815 -1.1710371,1.822988 -0.080248,0.213015 -0.066999,0.544182 0.030219,0.755352 0.08644,0.187758 0.2868209,0.399188 0.4573976,0.482617 0.2133602,0.104355 0.3786536,0.121129 1.1936265,0.121129 h 0.7580425 l -1.525e-4,0.247882 c -1.78e-4,0.300139 -0.028239,0.411201 -0.1345014,0.532228 -0.1718182,0.19569 -0.034786,0.185003 -2.3568822,0.183822 -1.2994871,-6.61e-4 -2.0954484,-0.0104 -2.1348334,-0.02612 z"
     id="path7211" />
  <path
     style="fill:#f5c2e7;stroke-width:0.0254237;fill-opacity:1.0"
     d="m 9.7754237,15.965768 c 0,-0.0072 0.1658899,-0.676304 0.3686443,-1.486954 0.202754,-0.810651 0.368644,-1.479689 0.368644,-1.486752 0,-0.0071 -0.6692641,-0.01579 -1.4872534,-0.0194 l -1.4872534,-0.0066 1.6461517,-2.471733 1.6461511,-2.4717326 0.197034,-7.25e-4 c 0.108369,-3.987e-4 0.197034,0.00515 0.197034,0.01232 0,0.00717 -0.16589,0.6763045 -0.368644,1.4869548 -0.202754,0.8106508 -0.368644,1.4796888 -0.368644,1.4867518 0,0.0071 0.669264,0.01579 1.487253,0.0194 l 1.487254,0.0066 -1.646152,2.471733 -1.646151,2.471733 -0.1970344,7.24e-4 c -0.1083686,3.99e-4 -0.1970339,-0.0051 -0.1970339,-0.01232 z"
     id="path7213" />
  <path
     style="fill:#f5c2e7;stroke-width:0.0254237;fill-opacity:1.0"
     d="M 3.7255762,16.966219 C 2.9125537,16.849197 2.2632647,16.257355 2.0705537,15.457627 2.0234694,15.262233 2.0215427,15.126305 2.0215427,12 c 0,-3.1263048 0.00193,-3.2622331 0.049011,-3.4576271 C 2.2409421,7.8352808 2.7398691,7.3122672 3.4576271,7.088336 L 3.6864407,7.0169492 H 10.5 17.313559 l 0.228814,0.071387 c 0.7282,0.2271891 1.227828,0.7607082 1.397383,1.4921725 0.05756,0.2483241 0.05766,6.5900373 1.02e-4,6.8389833 -0.171874,0.743416 -0.704308,1.297188 -1.448331,1.506375 l -0.203391,0.05718 -6.699153,0.0034 c -4.0145664,0.002 -6.764975,-0.0061 -6.8634068,-0.02024 z m 13.7062348,-1.05481 c 0.272536,-0.129123 0.46804,-0.362599 0.544671,-0.65046 0.05158,-0.19378 0.05316,-6.3224423 0.0017,-6.5151863 -0.0809,-0.3027474 -0.264148,-0.5234786 -0.545113,-0.6565831 L 17.262712,8.0084746 H 10.5 3.7372881 L 3.5663195,8.0894657 C 3.3823577,8.1766121 3.1932063,8.3496756 3.1157933,8.5016736 2.9821296,8.7641182 2.9872881,8.6236861 2.9872881,12 c 0,3.376314 -0.00516,3.235882 0.1285052,3.498326 0.065153,0.127926 0.2516866,0.313267 0.3834482,0.380997 0.2498251,0.128418 -0.1349229,0.122025 7.0388945,0.116955 l 6.724576,-0.0048 z"
     id="path7215" />
  <path
     style="fill:#f5c2e7;stroke-width:0.0254237;fill-opacity:1.0"
     d="m 20.021186,12 v -1.997514 l 0.133475,0.01613 c 0.474325,0.05734 0.836097,0.21236 1.159557,0.496886 0.284901,0.25061 0.541216,0.684952 0.623942,1.057309 0.233058,1.049018 -0.450844,2.127013 -1.496207,2.358386 -0.0846,0.01872 -0.213881,0.0413 -0.287292,0.05018 l -0.133475,0.01613 z"
     id="path7217" />
</svg>
