<?xml version="1.0" encoding="UTF-8" standalone="no"?>
<svg
   width="24"
   height="24"
   enable-background="new"
   version="1.1"
   id="svg11855"
   sodipodi:docname="battery-good.svg"
   inkscape:version="1.2.2 (b0a8486541, 2022-12-01)"
   xmlns:inkscape="http://www.inkscape.org/namespaces/inkscape"
   xmlns:sodipodi="http://sodipodi.sourceforge.net/DTD/sodipodi-0.dtd"
   xmlns="http://www.w3.org/2000/svg"
   xmlns:svg="http://www.w3.org/2000/svg">
  <defs
     id="defs11859" />
  <sodipodi:namedview
     id="namedview11857"
     pagecolor="#505050"
     bordercolor="#ffffff"
     borderopacity="1"
     inkscape:showpageshadow="0"
     inkscape:pageopacity="0"
     inkscape:pagecheckerboard="1"
     inkscape:deskcolor="#505050"
     showgrid="false"
     inkscape:zoom="45.254834"
     inkscape:cx="17.268873"
     inkscape:cy="10.429825"
     inkscape:window-width="932"
     inkscape:window-height="1114"
     inkscape:window-x="970"
     inkscape:window-y="68"
     inkscape:window-maximized="1"
     inkscape:current-layer="svg11855" />
  <title
     id="title11845">Paper Symbolic Icon Theme</title>
  <g
     transform="translate(2,4)"
     fill="#ffffff"
     fill-rule="evenodd"
     id="g11853"
     style="fill:#f5c2e7;fill-opacity:1.0">
    <rect
       x="2"
       y="5"
       width="10"
       height="6"
       rx=".5236"
       ry=".54584"
       style="paint-order:stroke fill markers;fill:#f5c2e7;fill-opacity:1.0"
       id="rect11847" />
    <path
       d="m2 3c-1.108 0-2 0.892-2 2v6c0 1.108 0.892 2 2 2h13c1.108 0 2-0.892 2-2v-6c0-1.108-0.892-2-2-2zm0 1h13c0.554 0 1 0.446 1 1v6c0 0.554-0.446 1-1 1h-13c-0.554 0-1-0.446-1-1v-6c0-0.554 0.446-1 1-1z"
       enable-background="new"
       style="paint-order:stroke fill markers;fill:#f5c2e7;fill-opacity:1.0"
       id="path11849" />
    <path
       d="m18 6v4a2 2 0 0 0 2-2 2 2 0 0 0-2-2z"
       enable-background="new"
       style="paint-order:stroke fill markers;fill:#f5c2e7;fill-opacity:1.0"
       id="path11851" />
  </g>
  <path
     style="fill:#f5c2e7;stroke-width:0.0359546;fill-opacity:1.0"
     d="m 4.2671607,14.90231 c -0.071841,-0.04394 -0.1472105,-0.136063 -0.1894633,-0.231582 -0.06776,-0.153183 -0.069833,-0.246713 -0.060474,-2.72897 0.00955,-2.5323078 0.010788,-2.5718205 0.083821,-2.6696238 0.040772,-0.0546 0.1188123,-0.1326314 0.1734229,-0.1734033 0.099081,-0.073973 0.1091509,-0.074131 4.7258061,-0.074131 h 4.6265146 l 0.117395,0.083732 c 0.237509,0.1694043 0.226536,0.020199 0.215867,2.9353991 l -0.0097,2.64254 -0.135425,0.135417 -0.135425,0.135417 -4.6465348,0.0091 c -4.6137893,0.009 -4.6473754,0.0086 -4.765833,-0.06388 z"
     id="path13430" />
  <path
     style="fill:#f5c2e7;stroke-width:0.0359546;fill-opacity:1.0"
     d="M 3.5774809,16.932352 C 2.8769677,16.781068 2.2681393,16.19234 2.0849735,15.489119 2.0056969,15.184756 2.0055728,8.8013996 2.0848376,8.5035306 2.2684398,7.8135726 2.8284507,7.2603579 3.5221144,7.0836966 3.7099719,7.0358533 4.569112,7.0291208 10.486545,7.0291208 c 4.734963,0 6.807019,0.01171 6.940669,0.039226 0.508652,0.1047188 1.068333,0.5254046 1.311085,0.9854799 0.235221,0.445804 0.227743,0.3156842 0.227743,3.9626563 0,3.638959 0.01123,3.443567 -0.224776,3.911397 -0.149186,0.295728 -0.552346,0.691945 -0.853861,0.839156 -0.476089,0.232444 -0.0696,0.220479 -7.406644,0.218021 -5.5841046,-0.0019 -6.7076106,-0.01045 -6.9032801,-0.0527 z M 17.48556,15.89376 c 0.205184,-0.11366 0.364907,-0.289086 0.465275,-0.511016 0.05775,-0.127699 0.06241,-0.378218 0.06241,-3.355936 0,-3.070212 -0.0031,-3.226029 -0.068,-3.3942421 -0.0899,-0.2330705 -0.285787,-0.4447182 -0.50727,-0.5480757 L 17.258199,8.000597 H 10.498738 3.7392765 L 3.5595036,8.08449 c -0.2214824,0.1033575 -0.4173723,0.3150052 -0.50727,0.5480757 -0.064871,0.1681866 -0.068003,0.3236859 -0.068003,3.3762643 0,3.479974 -0.011165,3.282616 0.2037233,3.601203 0.1059548,0.157085 0.2752842,0.280106 0.4931586,0.35829 0.1051734,0.03774 1.4206035,0.04522 6.8715575,0.03907 l 6.741484,-0.0076 z"
     id="path13432" />
  <path
     style="fill:#f5c2e7;stroke-width:0.0359546;fill-opacity:1.0"
     d="m 20.008725,11.990853 c 0,-1.88688 0.003,-1.977502 0.06531,-1.977502 0.40262,0 0.991444,0.264417 1.319611,0.592585 0.356311,0.356311 0.594018,0.918698 0.591961,1.400509 -0.001,0.240908 -0.09949,0.634645 -0.22088,0.883273 -0.282171,0.577939 -1.034044,1.078637 -1.619734,1.078637 h -0.136264 z"
     id="path13434" />
</svg>
