<?xml version="1.0" encoding="UTF-8" standalone="no"?>
<svg
   width="24"
   height="24"
   enable-background="new"
   version="1.1"
   id="svg1336"
   sodipodi:docname="battery-low.svg"
   inkscape:version="1.2.2 (b0a8486541, 2022-12-01)"
   xmlns:inkscape="http://www.inkscape.org/namespaces/inkscape"
   xmlns:sodipodi="http://sodipodi.sourceforge.net/DTD/sodipodi-0.dtd"
   xmlns="http://www.w3.org/2000/svg"
   xmlns:svg="http://www.w3.org/2000/svg">
  <defs
     id="defs1340" />
  <sodipodi:namedview
     id="namedview1338"
     pagecolor="#505050"
     bordercolor="#ffffff"
     borderopacity="1"
     inkscape:showpageshadow="0"
     inkscape:pageopacity="0"
     inkscape:pagecheckerboard="1"
     inkscape:deskcolor="#505050"
     showgrid="false"
     inkscape:zoom="16"
     inkscape:cx="15.40625"
     inkscape:cy="6.5625"
     inkscape:window-width="932"
     inkscape:window-height="1114"
     inkscape:window-x="970"
     inkscape:window-y="68"
     inkscape:window-maximized="1"
     inkscape:current-layer="svg1336" />
  <title
     id="title1326">Paper Symbolic Icon Theme</title>
  <g
     transform="translate(2,4)"
     fill="#ffffff"
     fill-rule="evenodd"
     id="g1334"
     style="fill:#f5c2e7;fill-opacity:1">
    <rect
       x="2"
       y="5"
       width="5"
       height="6"
       rx=".53373"
       ry=".54584"
       style="paint-order:stroke fill markers;fill:#f5c2e7;fill-opacity:1"
       id="rect1328" />
    <path
       d="m2 3c-1.108 0-2 0.892-2 2v6c0 1.108 0.892 2 2 2h13c1.108 0 2-0.892 2-2v-6c0-1.108-0.892-2-2-2zm0 1h13c0.554 0 1 0.446 1 1v6c0 0.554-0.446 1-1 1h-13c-0.554 0-1-0.446-1-1v-6c0-0.554 0.446-1 1-1z"
       enable-background="new"
       style="paint-order:stroke fill markers;fill:#f5c2e7;fill-opacity:1"
       id="path1330" />
    <path
       d="m18 6v4a2 2 0 0 0 2-2 2 2 0 0 0-2-2z"
       enable-background="new"
       style="paint-order:stroke fill markers;fill:#f5c2e7;fill-opacity:1"
       id="path1332" />
  </g>
  <path
     style="fill:#f5c2e7;stroke-width:0.0127119;fill-opacity:1"
     d="M 3.7627119,16.980715 C 2.9872793,16.879512 2.3425148,16.348617 2.1059232,15.616525 2.0011873,15.292439 2.0021186,15.31509 2.0021186,13.091874 V 11.141949 H 2.497616 2.9931133 l 0.00355,2.018009 c 0.00396,2.250344 -0.00381,2.059367 0.092055,2.262637 0.1355582,0.287443 0.3557896,0.469725 0.6680859,0.552963 l 0.1075982,0.02868 H 10.5 17.135593 l 0.107599,-0.02868 c 0.312296,-0.08324 0.532528,-0.26552 0.668086,-0.552963 0.09586,-0.20327 0.08809,-0.01229 0.09206,-2.262637 l 0.0036,-2.018009 h 0.495497 0.495497 l -10e-6,1.941737 c -7e-6,1.249421 -0.0047,1.991594 -0.01327,2.081568 -0.08482,0.894936 -0.688128,1.578861 -1.577934,1.788795 l -0.118536,0.02797 -6.743644,0.0018 c -3.7090047,0.001 -6.7608056,-4.02e-4 -6.7817801,-0.0031 z"
     id="path4363" />
  <path
     style="fill:#f5c2e7;stroke-width:0.0359546;fill-opacity:1"
     d="M 4.2960116,14.909503 C 4.217821,14.868572 4.1400677,14.784107 4.0891514,14.684787 l -0.08158,-0.159136 0.00967,-2.577122 c 0.00953,-2.5391622 0.010763,-2.578584 0.083802,-2.6763946 0.040772,-0.0546 0.1187973,-0.1326316 0.1733898,-0.1734035 0.097169,-0.07257 0.1427563,-0.074344 2.1652958,-0.084247 1.9869542,-0.00973 2.072145,-0.00741 2.2256196,0.060475 0.09662,0.04274 0.1882798,0.1176598 0.2323166,0.1898894 0.071243,0.1168529 0.072734,0.1727325 0.072734,2.7260057 0,2.537793 -0.00189,2.609805 -0.071446,2.723888 -0.039295,0.06445 -0.1241774,0.149332 -0.1886271,0.188627 -0.1133658,0.06912 -0.1850959,0.07145 -2.2031077,0.07158 -1.9492242,1.44e-4 -2.094137,-0.0042 -2.2112068,-0.06545 z"
     id="path4365" />
  <path
     style="fill:#f5c2e7;stroke-width:0.0359546;fill-opacity:1"
     d="M 2.0318606,9.914476 C 2.0323306,8.5780607 2.0426391,8.4930861 2.2551951,8.0735008 2.4104484,7.7670309 2.771443,7.4066203 3.075542,7.2544809 3.5571494,7.0135348 3.0446013,7.0291208 10.486545,7.0291208 c 4.734963,0 6.807019,0.01171 6.940669,0.039226 0.508652,0.1047188 1.068333,0.5254046 1.311085,0.9854799 0.212228,0.4022261 0.227743,0.5293354 0.227743,1.8658395 V 11.127943 H 18.50086 18.035677 L 18.024462,9.9504306 C 18.013596,8.8097245 18.010659,8.7672987 17.930506,8.5931451 17.822302,8.3580448 17.660059,8.1908994 17.437972,8.0857292 L 17.258199,8.000597 H 10.498738 3.7392765 L 3.5595036,8.0857292 C 3.3373269,8.190942 3.1750793,8.3581452 3.0671265,8.5931451 2.9872506,8.7670252 2.9841463,8.811516 2.9724214,9.9504306 L 2.9602992,11.127943 H 2.4958666 2.0314339 Z"
     id="path4367" />
  <path
     style="fill:#f5c2e7;stroke-width:0.0359546;fill-opacity:1"
     d="m 20.008725,11.990853 c 0,-1.88688 0.003,-1.977502 0.06531,-1.977502 0.40262,0 0.991444,0.264417 1.319611,0.592585 0.356311,0.356311 0.594018,0.918698 0.591961,1.400509 -0.001,0.240908 -0.09949,0.634645 -0.22088,0.883273 -0.282171,0.577939 -1.034044,1.078637 -1.619734,1.078637 h -0.136264 z"
     id="path4369" />
</svg>
